<svg xmlns="http://www.w3.org/2000/svg" viewBox="0 0 530.77 141.03"><defs><style>.cls-1{fill:#d32011;}.cls-2{fill:#4e9423;}.cls-3{fill:#004fb4;}.cls-4{fill:#fff;}</style></defs><title>Asset 1</title><g id="Layer_2" data-name="Layer 2"><g id="Layer_1-2" data-name="Layer 1"><g id="g22"><path id="path24" class="cls-1" d="M129,108.77a63.78,63.78,0,0,1-24.3,22.84q-16.83,9-34.18,9a72.87,72.87,0,0,1-34.89-9,64,64,0,0,1-26.2-26A72.33,72.33,0,0,1,0,70.16,70,70,0,0,1,9.39,35.63a65.58,65.58,0,0,1,26-26A70.33,70.33,0,0,1,105,9.6a64,64,0,0,1,24.1,22.77,59.68,59.68,0,0,0-20.49-18,66.35,66.35,0,0,0-64.95,0,60.92,60.92,0,0,0-24.29,24,64,64,0,0,0-8.76,31.85,66.06,66.06,0,0,0,8.76,32.66,59.28,59.28,0,0,0,24.46,24,68.47,68.47,0,0,0,32.55,8.33,67.31,67.31,0,0,0,31.9-8.33A59,59,0,0,0,129,108.77"/></g><g id="g26"><path id="path28" class="cls-2" d="M251.61,109a64,64,0,0,1-24.43,23Q210.26,141,192.81,141A73.26,73.26,0,0,1,157.73,132a64.27,64.27,0,0,1-26.35-26.18,72.64,72.64,0,0,1-9.44-35.61,70.36,70.36,0,0,1,9.44-34.73A66,66,0,0,1,157.55,9.26a70.73,70.73,0,0,1,70,0,64.5,64.5,0,0,1,24.24,22.9A60.06,60.06,0,0,0,231.16,14a66.7,66.7,0,0,0-65.31,0,61.25,61.25,0,0,0-24.42,24.14,64.28,64.28,0,0,0-8.81,32A66.37,66.37,0,0,0,141.43,103,59.63,59.63,0,0,0,166,127.17a69,69,0,0,0,32.74,8.37,67.81,67.81,0,0,0,32.07-8.37A59.48,59.48,0,0,0,251.61,109"/></g><g id="g30"><path id="path32" class="cls-3" d="M373.62,108.79a63.87,63.87,0,0,1-24.32,22.85q-16.83,9-34.19,9a72.85,72.85,0,0,1-34.9-9,64,64,0,0,1-26.23-26,72.34,72.34,0,0,1-9.39-35.43A70.07,70.07,0,0,1,254,35.61a65.72,65.72,0,0,1,26-26,70.34,70.34,0,0,1,69.63,0,64.16,64.16,0,0,1,24.11,22.79,59.57,59.57,0,0,0-20.51-18,66.32,66.32,0,0,0-65,0,60.93,60.93,0,0,0-24.31,24,64,64,0,0,0-8.76,31.86A66.1,66.1,0,0,0,264,102.86a59.35,59.35,0,0,0,24.47,24A68.58,68.58,0,0,0,321,135.21a67.35,67.35,0,0,0,31.91-8.33,59.11,59.11,0,0,0,20.69-18.09"/></g><g id="g34"><path id="path36" class="cls-3" d="M418.22,98.21a4.07,4.07,0,0,0-.53-2,3.36,3.36,0,0,0-1.36-1.36,4,4,0,0,0-1.89-.5,3.9,3.9,0,0,0-1.93.51,3.24,3.24,0,0,0-1.37,1.35,4.06,4.06,0,0,0-.52,2,3.82,3.82,0,0,0,.52,1.88,3.43,3.43,0,0,0,1.37,1.38,3.8,3.8,0,0,0,3.83,0,3.3,3.3,0,0,0,1.36-1.36,3.83,3.83,0,0,0,.52-1.89"/></g><g id="g38"><path id="path40" class="cls-2" d="M418.22,85.12a4,4,0,0,0-.53-2,3.3,3.3,0,0,0-1.36-1.36,3.83,3.83,0,0,0-3.82,0,3.27,3.27,0,0,0-1.37,1.36,4,4,0,0,0-.52,2,3.79,3.79,0,0,0,.52,1.88,3.43,3.43,0,0,0,1.37,1.38,3.8,3.8,0,0,0,3.83,0A3.36,3.36,0,0,0,417.7,87a3.89,3.89,0,0,0,.52-1.9"/></g><g id="g42"><path id="path44" class="cls-1" d="M418.22,72a4,4,0,0,0-.53-2,3.3,3.3,0,0,0-1.36-1.36,4,4,0,0,0-1.89-.51,3.9,3.9,0,0,0-1.93.51,3.27,3.27,0,0,0-1.37,1.36,4,4,0,0,0-.52,2,3.82,3.82,0,0,0,.52,1.88,3.43,3.43,0,0,0,1.37,1.38,3.8,3.8,0,0,0,3.83,0,3.32,3.32,0,0,0,1.36-1.37,3.83,3.83,0,0,0,.52-1.89"/></g><g id="g46"><path id="path48" class="cls-4" d="M350.36,46.64H313.64c-3.31,0-4.61,1.29-4.61,4.61V83.07C309,96,314.89,102,327.48,102h23.15c3.37,0,4.61-1.22,4.61-4.52s-1.25-4.65-4.47-4.65l-23.16,0c-5.94,0-9.35-3.41-9.35-9.36V78.79l23.14-.05a5,5,0,0,0,3.6-1,4.66,4.66,0,0,0,1-3.36c0-3.46-1.33-4.82-4.74-4.86l-23,.1V55.72l32.19.05c3.38-.07,4.73-1.35,4.75-4.58s-1.36-4.55-4.84-4.55"/></g><g id="g50"><path id="path52" class="cls-4" d="M399.19,46.64H376.31c-12.59,0-18.45,5.92-18.45,18.63v17.8c0,12.9,5.86,18.91,18.45,18.91h23.15c3.36,0,4.61-1.22,4.61-4.52s-1.25-4.65-4.47-4.65l-23.16,0c-5.94,0-9.36-3.41-9.36-9.36V65.32c0-6.07,3.27-9.55,9-9.55h23.24c3.38-.07,4.73-1.35,4.75-4.58s-1.36-4.55-4.84-4.55"/></g><g id="g54"><path id="path56" class="cls-4" d="M448.26,68.21H433.89c-7.57,0-11.09,3.56-11.09,11.21V90.6c0,7.76,3.52,11.38,11.09,11.38h14.54c1.82,0,2.41-.57,2.41-2.35s-.57-2.44-2.33-2.44l-14.53,0c-4,0-6.36-2.32-6.36-6.36V79.45c0-4.12,2.22-6.48,6.1-6.48h14.59c2.08,0,2.49-.87,2.5-2.39s-.4-2.37-2.55-2.37"/></g><g id="g58"><path id="path60" class="cls-4" d="M453.45,90.83c0,7.57,3.5,11.1,11,11.1h5.94c7.57,0,11.1-3.62,11.1-11.39V79.28c0-7.59-3.55-11.13-11.16-11.13h-5.76c-7.59,0-11.13,3.54-11.13,11.16Zm4.83-11.55c0-4,2.26-6.25,6.21-6.25h5.85c4,0,6.33,2.24,6.33,6.13V90.71c0,4.06-2.3,6.39-6.33,6.39h-5.85c-3.95,0-6.21-2.33-6.21-6.39Z"/></g><g id="g62"><path id="path64" class="cls-4" d="M528.36,102c1.83,0,2.41-.58,2.41-2.41v-20c0-7.77-3.52-11.39-11.09-11.39l-31.77-.06c-2.09,0-2.49.89-2.49,2.44V99.46c0,1.87.57,2.47,2.35,2.47s2.47-.6,2.47-2.47V73h9.11c4,0,6.34,2.33,6.34,6.39V99.51c0,1.87.58,2.47,2.41,2.47s2.41-.58,2.41-2.41L510.45,73h9.14c4,0,6.36,2.33,6.36,6.39V99.51c0,1.87.59,2.47,2.41,2.47"/></g><g id="g66"><path id="path68" class="cls-4" d="M300.59,92.81l-4.73,0c-5.93,0-9.34-3.41-9.34-9.36V55.71l13.8.06c3.36-.07,4.7-1.35,4.7-4.57s-1.36-4.56-4.84-4.56h-.11l-13.55-.06V37.41a4.93,4.93,0,0,0-1-3.57,4.85,4.85,0,0,0-3.5-1c-3.41,0-4.7,1.29-4.7,4.61V83.07c0,12.9,5.86,18.91,18.45,18.91h4.75c3.36,0,4.61-1.22,4.61-4.52s-1.27-4.65-4.52-4.65"/></g><g id="g70"><path id="path72" class="cls-4" d="M232.45,92.81l-23.16,0c-5.95,0-9.36-3.41-9.36-9.36V65.32c0-6.07,3.26-9.55,9-9.55h23.23c3.39-.07,4.73-1.35,4.75-4.58s-1.35-4.55-4.84-4.55H209.15c-12.58,0-18.44,5.92-18.44,18.63v17.8c0,12.9,5.86,18.91,18.44,18.91h23.16c3.36,0,4.61-1.22,4.61-4.52s-1.26-4.65-4.47-4.65"/></g><g id="g74"><path id="path76" class="cls-4" d="M149.61,101.84h.1l18.67,0c12.44,0,18.25-5.16,18.31-16.15,0-10.81-5.8-15.94-18.35-16.13h-4.43c-8.19,0-9.41-4.22-9.41-6.74s1.21-7,9.36-7h18.49c3.11-.07,4.37-1.39,4.43-4.71s-1.29-4.47-4.61-4.47l-18.45,0c-6.69,0-11.57,1.51-14.53,4.48-2.54,2.57-3.82,6.42-3.78,11.46,0,5.22,1.31,9.19,3.93,11.82,3,3,7.81,4.47,14.41,4.47h4.68c7.95.11,9.13,4.42,9.13,7s-1.33,7-9.27,7H149.65c-2.6,0-4.35.87-4.38,5,0,2.94,1.2,4,4.34,4"/></g><g id="g78"><path id="path80" class="cls-4" d="M100.38,101.89c3.25,0,4.51-1.32,4.51-4.7v-46c0-3.28-1.3-4.59-4.65-4.66l-6.84.1c-3.34.06-4.64,1.42-4.64,4.84a4.54,4.54,0,0,0,.93,3.32,5.12,5.12,0,0,0,3.67,1.06h2.31V97.19c0,3.38,1.32,4.7,4.71,4.7"/></g><g id="g82"><path id="path84" class="cls-4" d="M97.62,28.75A3.88,3.88,0,0,0,96,30.37a4.75,4.75,0,0,0-.63,2.34A4.55,4.55,0,0,0,96,35a4.13,4.13,0,0,0,1.64,1.65,4.55,4.55,0,0,0,4.57,0A4,4,0,0,0,103.82,35a4.7,4.7,0,0,0,.61-2.28,4.65,4.65,0,0,0-.63-2.34,3.92,3.92,0,0,0-1.63-1.62,4.55,4.55,0,0,0-4.55,0"/></g><g id="g86"><path id="path88" class="cls-4" d="M86.85,65.55c0-12.9-5.86-18.91-18.45-18.91H49.86V32.8c0-3.42-1.3-4.75-4.61-4.75s-4.62,1.28-4.62,4.56V97.28c0,3.38,1.27,4.7,4.52,4.7H68.31C81,102,86.85,96.12,86.85,83.53ZM77.63,83.72c0,5.72-3.4,9-9.32,9H49.86V55.86H68.31c5.92,0,9.32,3.43,9.32,9.41Z"/></g></g></g></svg>